<?xml version="1.0" encoding="UTF-8"?><svg id="Layer_2" xmlns="http://www.w3.org/2000/svg" viewBox="0 0 21.37 37.26"><defs><style>.cls-1{fill:#ffec2e;}.cls-2{fill:none;stroke:#ffec2e;stroke-miterlimit:10;stroke-width:2.01px;}</style></defs><g id="Isolation_Mode"><g><path class="cls-2" d="m1.01,37.26v-19.91c0-7.37,5.36-10.01,10.31-9.65,1.95.14,2.44,1.13,2.36,1.8-.13,1.03-1.62,1.69-2.45.98-1.38-1.18-1.63-3.96-.48-5.77,1.59-2.49,4.56-2.95,6.7-1.93,2.43,1.16,3.58,3.96,2.52,6.45-.75,1.77-2.48,3.08-4.8,3.7-4.06,1.08-9.56,2.97-9.56,11.17v5.27l10-12.81"/><polygon class="cls-1" points="11.03 4.41 6.57 .51 6.89 0 12.36 2.28 11.03 4.41 11.03 4.41"/></g></g></svg>