<?xml version="1.0" encoding="UTF-8"?><svg id="Layer_2" xmlns="http://www.w3.org/2000/svg" viewBox="0 0 218.01 217.61"><defs><style>.cls-1{fill:#ffec2e;}</style></defs><g id="Layer_1-2"><g><path class="cls-1" d="M182.14,74.44c1.22,.59,2.67,.07,3.24-1.14l12.84-26.85c-1.05-1.51-2.14-2.97-3.28-4.42l-13.95,29.17c-.55,1.2-.04,2.65,1.16,3.24Z"/><path class="cls-1" d="M218.01,108.99c0-21.21-6.08-40.98-16.55-57.73-4.31,11-9.71,24.38-12.84,30.4-4.96,9.64-18.81,11.44-22.2,11.85-16.75,44.04-20.21,84.92-18.59,117.35,41.03-15.66,70.18-55.35,70.18-101.86Zm-54.19,70.13s-17.1-50.25,36.32-77.65c-.02,0,12.14,60.01-36.32,77.65Z"/><path class="cls-1" d="M82.33,193.49C61.6,85.29,107.83,26.13,133.2,2.73c-7.79-1.77-15.88-2.73-24.21-2.73-19.11,0-37.09,4.94-52.72,13.6,37.35,36.04,12.97,76.47,12.97,76.47-30.92-19.59-26.5-53.88-21.85-71.01C29.85,31.1,16.03,48.13,7.94,68.1c10.19-5.95,30.13,4.05,41.55,22.13,10.63,16.82,2.03,35.75,.61,38.6,0,0-.02,0-.02,.02,17.08,25.61,25.87,59.48,30.33,85.33,6.39,1.73,13.01,2.89,19.81,3.43l-1.55-25.89-16.34,1.77Z"/><path class="cls-1" d="M153.08,64.67c4.11-9.29,17.87-33.07,22.87-41.64-10.21-7.96-21.85-14.17-34.51-18.11-41.16,90.03-28.3,185.23-28.3,185.23l5.16,27.42c3.5-.28,6.93-.77,10.32-1.38,.61-55.96,21.19-107.9,29.24-126.09-.33-.46-9.78-14.17-4.79-25.43Z"/><path class="cls-1" d="M172.45,69.8c1.2,.57,2.67,.07,3.24-1.14l15.13-31.62c-1.16-1.31-2.34-2.6-3.54-3.85l-15.96,33.37c-.59,1.2-.07,2.67,1.14,3.24Z"/><path class="cls-1" d="M162.77,65.17c1.2,.57,2.65,.07,3.24-1.16l16.82-35.19c-1.25-1.14-2.49-2.25-3.78-3.32l-17.41,36.41c-.59,1.22-.07,2.67,1.14,3.26Z"/><path class="cls-1" d="M8.75,115.97c-4.11-6.52-6.69-13.65-7.89-20.43-.55,4.42-.85,8.9-.85,13.45,0,43.98,26.05,81.83,63.55,99.06-2.3-35.54-13.19-61.98-19.83-75.07-2.93,.07-24.27-.07-34.97-17.01Zm39.47,61.14c-27.14-3.85-27.44-36.37-27.44-36.37,30.79,8.38,27.44,36.37,27.44,36.37Z"/><path class="cls-1" d="M30.51,151.88c-1.97-2.34-4-4.64-6.23-6.78,1.44,2.73,3.06,5.34,4.75,7.89s3.48,5.03,5.29,7.5c1.86,2.43,3.72,4.85,5.71,7.17,1.97,2.34,4,4.64,6.23,6.78-1.44-2.73-3.06-5.34-4.75-7.89s-3.48-5.03-5.27-7.5c-1.88-2.41-3.76-4.83-5.73-7.17Z"/><path class="cls-1" d="M55.37,35.38c.87,5.53,1.99,11.02,3.17,16.49,1.25,5.45,2.56,10.89,4.11,16.27,1.53,5.4,3.19,10.76,5.29,16.03-.33-5.66-1.07-11.22-1.97-16.75-.87-5.53-1.99-11.02-3.15-16.49-1.25-5.45-2.56-10.89-4.09-16.29s-3.19-10.76-5.29-16.01c.28,5.66,1.03,11.22,1.92,16.75Z"/><path class="cls-1" d="M178.88,141.23c-2.38,5.25-4.7,10.5-6.8,15.88-2.12,5.36-4.09,10.78-5.66,16.4,3.26-4.83,6.12-9.84,8.83-14.94,2.73-5.07,5.25-10.26,7.7-15.46,2.38-5.23,4.7-10.5,6.8-15.88,2.12-5.36,4.09-10.78,5.66-16.4-3.26,4.83-6.12,9.84-8.83,14.91-2.76,5.1-5.25,10.28-7.7,15.48Z"/></g></g></svg>